HIERARCHY
ROOT Hips
{
  OFFSET 0 0 0
  CHANNELS 6 Xposition Yposition Zposition Zrotation Yrotation Xrotation
  JOINT LeftThigh
  {
    OFFSET 8.409438 0 -5.917753
    CHANNELS 3 Zrotation Yrotation Xrotation
    JOINT LeftLeg
    {
      OFFSET 0 0 -42.358652
      CHANNELS 3 Zrotation Yrotation Xrotation
      JOINT LeftFoot
      {
        OFFSET 0 0 -39.357303
        CHANNELS 3 Zrotation Yrotation Xrotation
      }
    }
  }
  JOINT RightThigh
  {
    OFFSET -8.409438 0 -5.917753
    CHANNELS 3 Zrotation Yrotation Xrotation
    JOINT RightLeg
    {
      OFFSET 0 0 -42.358652
      CHANNELS 3 Zrotation Yrotation Xrotation
      JOINT RightFoot
      {
        OFFSET 0 0 -39.357303
        CHANNELS 3 Zrotation Yrotation Xrotation
      }
    }
  }
  JOINT SpineLow
  {
    OFFSET 0 0 4.719101
    CHANNELS 3 Zrotation Yrotation Xrotation
    JOINT SpineMid
    {
      OFFSET 0 0 12.899191
      CHANNELS 3 Zrotation Yrotation Xrotation
      JOINT Chest
      {
        OFFSET 0 0 12.899191
        CHANNELS 3 Zrotation Yrotation Xrotation
        JOINT LeftShoulder
        {
          OFFSET 7.550562 1.41573 9.438202
          CHANNELS 3 Zrotation Yrotation Xrotation
          JOINT LeftArm
          {
            OFFSET 9.155056 0 4.247191
            CHANNELS 3 Zrotation Yrotation Xrotation
            JOINT LeftForearm
            {
              OFFSET 0 0 25.771955
              CHANNELS 3 Zrotation Yrotation Xrotation
              JOINT LeftHand
              {
                OFFSET 0 0 25.197169
                CHANNELS 3 Zrotation Yrotation Xrotation
              }
            }
          }
        }
        JOINT RightShoulder
        {
          OFFSET -7.550562 1.41573 9.438202
          CHANNELS 3 Zrotation Yrotation Xrotation
          JOINT RightArm
          {
            OFFSET -9.155056 0 4.247191
            CHANNELS 3 Zrotation Yrotation Xrotation
            JOINT RightForearm
            {
              OFFSET 0 0 -25.771955
              CHANNELS 3 Zrotation Yrotation Xrotation
              JOINT RightHand
              {
                OFFSET 0 0 -25.197169
                CHANNELS 3 Zrotation Yrotation Xrotation
              }
            }
          }
        }
        JOINT Neck
        {
          OFFSET 0 0 15.101124
          CHANNELS 3 Zrotation Yrotation Xrotation
          JOINT Head
          {
            OFFSET 0 0 11.325843
            CHANNELS 3 Zrotation Yrotation Xrotation
            End Site
            {
              OFFSET 0 0 14.157303
            }
          }
        }
      }
    }
  }
}
MOTION
Frames: 7
Frame Time: 0.0
0.0  101.685394  0.0  -1.486148  2.580659  -101.952746  7.318351  -22.487405  2.446267  -0.936855  14.529773  29.983654  6.065953  4.922085  4.637791  -10.814581  11.459202  0.118909  1.264554  3.671004  21.240766  -2.137525  1.328247  -1.263528  -3.46897  0.906083  2.82081  -9.366951  2.870874  7.566633  -9.366951  2.870874  7.566633  -14.425022  25.871445  10.291499  170.046774  61.654718  -170.170472  18.683158  -11.477287  11.135179  64.889776  -1.068658  3.917804  11.894073  -7.294522  13.326858  47.807104  14.620597  31.814918  -1.504633  -30.16423  -106.942164  58.574019  16.240295  0.809187  14.755333  -1.826721  -0.500129  11.064077  -1.383075  -0.331162  
0.0  101.685394  0.0  -1.426975  2.75447  -102.014672  7.244621  -22.396647  2.475669  -1.121885  14.572825  29.942582  6.116527  4.918745  4.663431  -11.161981  11.565345  0.147861  1.42906  3.707796  21.307922  -2.077103  1.307556  -1.265322  -3.4735  0.907519  2.817026  -9.379348  2.874764  7.555898  -9.379349  2.874764  7.555898  -14.087371  25.780663  10.385533  169.949231  61.518271  -170.079552  18.771346  -12.552127  11.975537  64.676258  -1.457269  4.510861  12.063506  -7.296916  13.384267  47.594735  14.846359  31.698593  -1.68576  -29.835669  -106.656979  58.99563  15.639731  1.071782  14.624297  -1.778332  -0.494266  10.965913  -1.346494  -0.328313  
0.0  101.685394  0.0  -1.36796  3.023436  -102.033366  7.019538  -22.302974  2.467344  -1.201623  14.638349  29.962082  6.126306  4.907259  4.653009  -11.504622  11.631017  0.196177  1.696563  3.705147  21.38062  -2.163699  1.309059  -1.296864  -3.483164  0.903457  2.810395  -9.406487  2.863856  7.537892  -9.406488  2.863857  7.537892  -13.309698  25.87868  10.500457  169.787323  61.365741  -169.965018  19.121549  -14.024417  13.120871  64.454684  -1.871109  5.005488  11.955977  -7.28997  13.322588  47.505198  15.071922  31.625142  -1.980186  -29.215711  -106.110761  59.509156  14.954256  1.204698  14.504752  -1.718625  -0.483666  10.876397  -1.301321  -0.322124  
0.0  101.685394  0.0  -1.292351  3.248654  -102.08997  6.755675  -22.179766  2.4745  -1.213426  14.676713  30.00736  6.153114  4.90492  4.675015  -12.029046  11.764423  0.219366  1.952314  3.76957  21.406392  -2.092612  1.285141  -1.308925  -3.474164  0.904364  2.808448  -9.381903  2.865041  7.532885  -9.381903  2.865041  7.532885  -13.016648  25.777943  10.513294  169.427489  61.215229  -169.974994  18.974401  -15.41749  14.232376  64.273895  -2.225139  5.388976  12.101349  -7.311241  13.396089  47.177492  15.438918  31.43754  -2.501804  -28.387806  -105.397482  60.259612  14.17298  1.238022  14.305549  -1.676693  -0.512086  10.727  -1.270335  -0.344992  
0.0  101.685394  0.0  -1.230473  3.42334  -102.199073  6.583226  -22.133794  2.582807  -1.104721  14.703689  30.119126  6.001692  4.866176  4.60855  -12.536495  11.847426  0.301715  2.379735  3.819454  21.460714  -2.103447  1.270654  -1.351533  -3.441453  0.899812  2.821877  -9.292419  2.850842  7.571693  -9.29242  2.850842  7.571693  -12.629734  25.734749  10.478213  168.982303  61.022052  -169.963839  18.815782  -17.070923  15.537581  64.083561  -2.488462  5.636994  11.849148  -7.36377  13.299078  47.110949  15.845632  31.399822  -3.135435  -27.189071  -104.407032  61.19382  13.363675  1.108257  14.094054  -1.633391  -0.546155  10.568374  -1.238423  -0.372134  
0.0  101.685394  0.0  -1.173035  3.73133  -102.255552  6.196756  -22.004878  2.571995  -1.027695  14.714281  30.21127  5.968589  4.863376  4.618049  -13.073826  11.974466  0.368386  2.510685  3.942835  21.4317  -1.981282  1.238551  -1.370168  -3.419266  0.89713  2.827992  -9.231824  2.841877  7.589786  -9.231824  2.841877  7.589785  -12.393982  25.596044  10.42019  168.223162  60.872673  -170.145117  18.293946  -18.732333  16.953621  63.882478  -2.693836  5.72291  11.942028  -7.440724  13.375778  46.714561  16.42318  31.167931  -3.924662  -25.711416  -103.291373  62.333527  12.524168  0.904889  13.804048  -1.624982  -0.616728  10.350715  -1.233417  -0.426049  
0.0  101.685394  0.0  -1.137813  4.033487  -102.266976  6.001833  -21.961442  2.595165  -1.139766  14.761814  30.161624  5.871291  4.862043  4.595301  -13.651612  12.033639  0.358912  2.724039  4.032784  21.436148  -1.921431  1.247319  -1.398851  -3.379499  0.883947  2.837414  -9.1242  2.80276  7.619104  -9.124199  2.80276  7.619105  -12.012614  25.525701  10.345001  166.892962  60.799906  -170.511995  17.599922  -20.483809  18.423124  63.707087  -2.844056  5.653326  11.725123  -7.533138  13.296159  46.524712  17.057046  31.041376  -4.776868  -23.909713  -101.976094  63.550335  11.775081  0.579065  13.456763  -1.621915  -0.71025  10.09003  -1.232789  -0.497206  
